<?xml version="1.0" encoding="utf-8"?>
<!-- Generator: Adobe Illustrator 28.0.0, SVG Export Plug-In . SVG Version: 6.00 Build 0)  -->
<svg version="1.2" baseProfile="tiny" id="Layer_1" xmlns="http://www.w3.org/2000/svg" xmlns:xlink="http://www.w3.org/1999/xlink"
	 x="0px" y="0px" width="30px" height="30px" viewBox="0 0 30 30" overflow="visible" xml:space="preserve">
<g>
	<path fill="#DB2A2A" d="M29.9,13.3c0-0.1,0-0.2,0-0.4c0-0.3-0.1-0.5-0.1-0.8c0-0.3-0.1-0.6-0.2-0.9c-0.1-0.5-0.3-1-0.4-1.4
		c-0.1-0.3-0.3-0.7-0.4-1c-0.1-0.3-0.3-0.7-0.5-1c-0.2-0.3-0.4-0.6-0.6-0.9C27.4,6.6,27.2,6.3,27,6c-0.2-0.2-0.3-0.4-0.5-0.6
		c-0.1-0.1-0.2-0.2-0.3-0.3c-0.2-0.2-0.4-0.5-0.6-0.7c-0.3-0.3-0.7-0.7-1.1-1c-0.4-0.3-0.8-0.6-1.1-0.9C23,2.3,22.6,2,22.2,1.8
		c-0.2-0.1-0.5-0.3-0.8-0.4c-0.1-0.1-0.3-0.1-0.4-0.2c-0.3-0.1-0.5-0.2-0.8-0.3c-0.7-0.3-1.5-0.5-2.2-0.6c-0.2,0-0.3-0.1-0.5-0.1
		l-0.2,0c-0.2,0-0.4-0.1-0.7-0.1C16.3,0,16,0,15.8,0c-0.2,0-0.5,0-0.8,0s-0.5,0-0.8,0c-0.3,0-0.5,0-0.8,0.1c-0.2,0-0.5,0-0.7,0.1
		l-0.2,0c-0.2,0-0.4,0.1-0.5,0.1c-0.8,0.1-1.5,0.4-2.2,0.6C9.6,1,9.3,1.1,9,1.2c-0.1,0-0.3,0.1-0.4,0.2C8.3,1.5,8.1,1.7,7.8,1.8
		C7.4,2,7,2.3,6.6,2.6C6.2,2.8,5.8,3.1,5.5,3.4c-0.4,0.3-0.7,0.6-1.1,1C4.2,4.6,4,4.8,3.8,5.1C3.7,5.2,3.6,5.3,3.5,5.4
		C3.3,5.6,3.1,5.8,3,6C2.8,6.3,2.6,6.6,2.4,6.9C2.2,7.2,2,7.5,1.8,7.8c-0.2,0.3-0.3,0.7-0.5,1C1.2,9.2,1,9.5,0.9,9.8
		c-0.2,0.5-0.3,0.9-0.4,1.4c-0.1,0.3-0.1,0.6-0.2,0.9c-0.1,0.3-0.1,0.5-0.1,0.8c0,0.1,0,0.2,0,0.4C0,13.9,0,14.4,0,15
		c0,0.7,0,1.4,0.1,2c0,0.3,0.1,0.5,0.1,0.8c0,0.3,0.1,0.6,0.2,0.9c0.1,0.5,0.3,1,0.4,1.4c0.1,0.3,0.3,0.7,0.4,1
		c0.1,0.3,0.3,0.7,0.5,1c0.2,0.3,0.4,0.6,0.6,0.9C2.6,23.4,2.8,23.7,3,24c0.2,0.3,0.5,0.6,0.8,1c0.2,0.2,0.4,0.5,0.6,0.7
		c0.3,0.3,0.7,0.7,1.1,1c0.4,0.3,0.8,0.6,1.1,0.9C7,27.7,7.4,28,7.8,28.2c0.2,0.1,0.5,0.3,0.8,0.4c0.1,0.1,0.3,0.1,0.4,0.2
		c0.3,0.1,0.5,0.2,0.8,0.3c0.7,0.3,1.5,0.5,2.2,0.6c0.2,0,0.3,0.1,0.5,0.1l0.2,0c0.2,0,0.4,0.1,0.7,0.1c0.2,0,0.5,0,0.8,0.1
		c0.2,0,0.5,0,0.8,0s0.5,0,0.8,0c0.3,0,0.5,0,0.8-0.1c0.2,0,0.5,0,0.7-0.1l0.2,0c0.2,0,0.4-0.1,0.5-0.1c0.8-0.1,1.5-0.4,2.2-0.6
		c0.3-0.1,0.5-0.2,0.8-0.3c0.1,0,0.3-0.1,0.4-0.2c0.3-0.1,0.5-0.2,0.8-0.4c0.4-0.2,0.8-0.5,1.2-0.8c0.4-0.3,0.8-0.6,1.1-0.9
		c0.4-0.3,0.7-0.6,1.1-1c0.2-0.2,0.4-0.5,0.6-0.7c0.3-0.3,0.5-0.6,0.8-1c0.2-0.3,0.4-0.6,0.6-0.9c0.2-0.3,0.4-0.6,0.6-0.9
		c0.2-0.3,0.3-0.7,0.5-1c0.2-0.3,0.3-0.7,0.4-1c0.2-0.5,0.3-0.9,0.4-1.4c0.1-0.3,0.1-0.6,0.2-0.9c0.1-0.3,0.1-0.5,0.1-0.8
		c0.1-0.7,0.1-1.4,0.1-2C30,14.4,30,13.9,29.9,13.3z M14.1,3.3c3.8-0.5,7.5,2.1,8.2,5.8c0.5,2.5-0.1,4.7-1.8,6.6
		c-1.7,1.9-3.3,3.8-4.7,5.9c-0.4,0.6-1,0.6-1.4,0c-1.3-1.8-2.6-3.7-4.2-5.3c-0.6-0.6-1.2-1.3-1.6-2.1C7.9,13.1,7.6,12,7.6,11
		C7.6,7,10.3,3.8,14.1,3.3z M22.8,24.4c-0.8,0.8-1.7,1.3-2.7,1.6c-1.7,0.6-3.4,0.8-5.1,0.8c-1.8,0-3.6-0.2-5.3-0.9
		c-0.8-0.3-1.6-0.7-2.2-1.3c-1.4-1.3-1.4-3,0-4.2c0.8-0.7,1.7-1.2,2.7-1.5c0.1,0,0.2,0,0.2,0.1c0.8,1,1.5,2,2.2,3
		c0.2,0.2,0.3,0.4,0.5,0.7c1,1.3,2.9,1.3,3.8,0c0.9-1.2,1.8-2.4,2.7-3.6c0.1-0.2,0.2-0.2,0.5-0.1c1,0.4,1.9,0.8,2.7,1.6
		C23.9,21.7,23.9,23.2,22.8,24.4z"/>
	<path fill="#DB2A2A" d="M15,7.5c-1.8,0-3.3,1.4-3.3,3.2c0,1.8,1.4,3.3,3.2,3.3c1.8,0,3.2-1.4,3.3-3.2C18.3,9,16.8,7.6,15,7.5z
		 M15,12.5c-0.9,0-1.7-0.8-1.7-1.7c0-0.9,0.8-1.7,1.7-1.7s1.7,0.8,1.7,1.7C16.7,11.7,15.9,12.5,15,12.5z"/>
</g>
</svg>
