<?xml version="1.0" encoding="utf-8"?>
<!-- Generator: Adobe Illustrator 24.0.2, SVG Export Plug-In . SVG Version: 6.00 Build 0)  -->
<svg version="1.1" id="Layer_1" xmlns="http://www.w3.org/2000/svg" xmlns:xlink="http://www.w3.org/1999/xlink" x="0px" y="0px"
	 viewBox="0 0 30 30" style="enable-background:new 0 0 30 30;" xml:space="preserve">
<style type="text/css">
	.st0{fill:#FE0002;}
	.st1{fill:none;stroke:url(#SVGID_1_);stroke-width:0.4177;stroke-miterlimit:10;}
	.st2{fill:#FFFFFF;stroke:url(#SVGID_2_);stroke-width:0.4177;stroke-miterlimit:10;}
	.st3{fill:url(#SVGID_3_);stroke:url(#SVGID_4_);stroke-width:0.4177;stroke-miterlimit:10;}
	.st4{fill:url(#SVGID_5_);stroke:url(#SVGID_6_);stroke-width:0.4177;stroke-miterlimit:10;}
	.st5{fill:url(#SVGID_7_);stroke:url(#SVGID_8_);stroke-width:0.4177;stroke-miterlimit:10;}
	.st6{fill:url(#SVGID_9_);stroke:url(#SVGID_10_);stroke-width:0.4177;stroke-miterlimit:10;}
	.st7{fill:url(#SVGID_11_);stroke:url(#SVGID_12_);stroke-width:0.4177;stroke-miterlimit:10;}
	.st8{fill:url(#SVGID_13_);stroke:url(#SVGID_14_);stroke-width:0.4177;stroke-miterlimit:10;}
	.st9{fill:url(#SVGID_15_);stroke:url(#SVGID_16_);stroke-width:0.4177;stroke-miterlimit:10;}
	.st10{fill:url(#SVGID_17_);stroke:url(#SVGID_18_);stroke-width:0.4177;stroke-miterlimit:10;}
	.st11{fill:url(#SVGID_19_);stroke:url(#SVGID_20_);stroke-width:0.4177;stroke-miterlimit:10;}
	.st12{fill:url(#SVGID_21_);stroke:url(#SVGID_22_);stroke-width:0.4177;stroke-miterlimit:10;}
	.st13{fill:url(#SVGID_23_);stroke:url(#SVGID_24_);stroke-width:0.4177;stroke-miterlimit:10;}
	.st14{fill:url(#SVGID_25_);stroke:url(#SVGID_26_);stroke-width:0.4177;stroke-miterlimit:10;}
	.st15{fill:url(#SVGID_27_);stroke:url(#SVGID_28_);stroke-width:0.4177;stroke-miterlimit:10;}
	.st16{fill:url(#SVGID_29_);stroke:url(#SVGID_30_);stroke-width:0.4177;stroke-miterlimit:10;}
	.st17{fill:url(#SVGID_31_);stroke:url(#SVGID_32_);stroke-width:0.4177;stroke-miterlimit:10;}
	.st18{fill:url(#SVGID_33_);stroke:url(#SVGID_34_);stroke-width:0.4177;stroke-miterlimit:10;}
	.st19{fill:url(#SVGID_35_);stroke:url(#SVGID_36_);stroke-width:0.4177;stroke-miterlimit:10;}
	.st20{fill:url(#SVGID_37_);stroke:url(#SVGID_38_);stroke-width:0.4177;stroke-miterlimit:10;}
	.st21{opacity:0.5;fill:#FE0002;}
	.st22{fill:#00CCFF;}
	.st23{fill-rule:evenodd;clip-rule:evenodd;fill:#FFFFFF;}
	.st24{fill:#007BBC;}
	.st25{fill:#FFFFFF;}
	.st26{fill:#245A9B;}
	.st27{fill-rule:evenodd;clip-rule:evenodd;fill:#245A9B;}
	.st28{fill:#00AEF7;}
</style>
<g>
	<circle class="st22" cx="15" cy="15" r="15"/>
	<g>
		<g>
			<path class="st25" d="M23.6,9.5c-0.6,0.3-1.2,0.4-1.8,0.5c0.3,0,0.7-0.6,0.9-0.8c0.3-0.3,0.5-0.7,0.6-1.1c0,0,0-0.1,0-0.1
				c0,0-0.1,0-0.1,0c-0.7,0.4-1.4,0.6-2.1,0.8c-0.1,0-0.1,0-0.1,0c-0.1-0.1-0.1-0.1-0.2-0.2c-0.3-0.3-0.6-0.5-1-0.6
				c-0.5-0.2-1-0.3-1.6-0.3c-0.5,0-1,0.2-1.5,0.4c-0.5,0.2-0.9,0.6-1.2,1c-0.3,0.4-0.6,0.9-0.7,1.4c-0.1,0.5-0.1,1,0,1.5
				c0,0.1,0,0.1-0.1,0.1c-2.9-0.4-5.3-1.5-7.2-3.7c-0.1-0.1-0.1-0.1-0.2,0c-0.8,1.3-0.4,3.3,0.6,4.3c0.1,0.1,0.3,0.3,0.4,0.4
				c-0.1,0-0.8-0.1-1.4-0.4c-0.1-0.1-0.1,0-0.1,0.1c0,0.1,0,0.3,0,0.4c0.2,1.3,1.1,2.5,2.3,2.9c0.1,0.1,0.3,0.1,0.5,0.1
				c-0.3,0.1-0.6,0.1-1.4,0c-0.1,0-0.1,0-0.1,0.1c0.6,1.6,1.9,2.1,2.9,2.4c0.1,0,0.3,0,0.4,0.1c0,0,0,0,0,0c-0.3,0.5-1.4,0.9-2,1
				c-0.9,0.3-2,0.5-3,0.4c-0.2,0-0.2,0-0.2,0c0,0,0,0.1,0,0.1c0.2,0.1,0.4,0.3,0.6,0.4c0.6,0.3,1.3,0.6,2,0.8
				c3.6,1,7.6,0.3,10.3-2.4c2.1-2.1,2.8-5,2.8-7.9c0-0.1,0.1-0.2,0.2-0.2c0.5-0.4,1-0.9,1.4-1.5C23.7,9.7,23.7,9.6,23.6,9.5
				C23.7,9.5,23.7,9.5,23.6,9.5C23.7,9.5,23.7,9.5,23.6,9.5z"/>
		</g>
		<g>
			<path class="st23" d="M11.4,22.1C11.4,22.1,11.1,22.1,11.4,22.1C11.4,22.1,11.3,22.1,11.4,22.1z"/>
		</g>
		<g>
			<path class="st23" d="M12,22.2C12,22.1,12.3,22.2,12,22.2C12,22.1,12,22.2,12,22.2z"/>
		</g>
		<g>
			<path class="st23" d="M18.2,7.8C18.1,7.8,18.1,7.8,18.2,7.8C18.1,7.8,18.1,7.8,18.2,7.8z"/>
		</g>
	</g>
</g>
</svg>
