<?xml version="1.0" encoding="utf-8"?>
<!-- Generator: Adobe Illustrator 24.0.2, SVG Export Plug-In . SVG Version: 6.00 Build 0)  -->
<svg version="1.1" id="Layer_1" xmlns="http://www.w3.org/2000/svg" xmlns:xlink="http://www.w3.org/1999/xlink" x="0px" y="0px"
	 viewBox="0 0 30 30" style="enable-background:new 0 0 30 30;" xml:space="preserve">
<style type="text/css">
	.st0{fill:#FE0002;}
	.st1{fill:none;stroke:url(#SVGID_1_);stroke-width:0.4177;stroke-miterlimit:10;}
	.st2{fill:#FFFFFF;stroke:url(#SVGID_2_);stroke-width:0.4177;stroke-miterlimit:10;}
	.st3{fill:url(#SVGID_3_);stroke:url(#SVGID_4_);stroke-width:0.4177;stroke-miterlimit:10;}
	.st4{fill:url(#SVGID_5_);stroke:url(#SVGID_6_);stroke-width:0.4177;stroke-miterlimit:10;}
	.st5{fill:url(#SVGID_7_);stroke:url(#SVGID_8_);stroke-width:0.4177;stroke-miterlimit:10;}
	.st6{fill:url(#SVGID_9_);stroke:url(#SVGID_10_);stroke-width:0.4177;stroke-miterlimit:10;}
	.st7{fill:url(#SVGID_11_);stroke:url(#SVGID_12_);stroke-width:0.4177;stroke-miterlimit:10;}
	.st8{fill:url(#SVGID_13_);stroke:url(#SVGID_14_);stroke-width:0.4177;stroke-miterlimit:10;}
	.st9{fill:url(#SVGID_15_);stroke:url(#SVGID_16_);stroke-width:0.4177;stroke-miterlimit:10;}
	.st10{fill:url(#SVGID_17_);stroke:url(#SVGID_18_);stroke-width:0.4177;stroke-miterlimit:10;}
	.st11{fill:url(#SVGID_19_);stroke:url(#SVGID_20_);stroke-width:0.4177;stroke-miterlimit:10;}
	.st12{fill:url(#SVGID_21_);stroke:url(#SVGID_22_);stroke-width:0.4177;stroke-miterlimit:10;}
	.st13{fill:url(#SVGID_23_);stroke:url(#SVGID_24_);stroke-width:0.4177;stroke-miterlimit:10;}
	.st14{fill:url(#SVGID_25_);stroke:url(#SVGID_26_);stroke-width:0.4177;stroke-miterlimit:10;}
	.st15{fill:url(#SVGID_27_);stroke:url(#SVGID_28_);stroke-width:0.4177;stroke-miterlimit:10;}
	.st16{fill:url(#SVGID_29_);stroke:url(#SVGID_30_);stroke-width:0.4177;stroke-miterlimit:10;}
	.st17{fill:url(#SVGID_31_);stroke:url(#SVGID_32_);stroke-width:0.4177;stroke-miterlimit:10;}
	.st18{fill:url(#SVGID_33_);stroke:url(#SVGID_34_);stroke-width:0.4177;stroke-miterlimit:10;}
	.st19{fill:url(#SVGID_35_);stroke:url(#SVGID_36_);stroke-width:0.4177;stroke-miterlimit:10;}
	.st20{fill:url(#SVGID_37_);stroke:url(#SVGID_38_);stroke-width:0.4177;stroke-miterlimit:10;}
	.st21{opacity:0.5;fill:#FE0002;}
	.st22{fill:#00CCFF;}
	.st23{fill-rule:evenodd;clip-rule:evenodd;fill:#FFFFFF;}
	.st24{fill:#007BBC;}
	.st25{fill:#245A9B;}
	.st26{fill-rule:evenodd;clip-rule:evenodd;fill:#245A9B;}
	.st27{fill:#00AEF7;}
</style>
<g>
	<g>
		<path class="st25" d="M15,30C6.7,30,0,23.3,0,15C0,6.7,6.7,0,15,0c8.3,0,15,6.7,15,15C30,23.3,23.3,30,15,30z M15,1.6
			C7.6,1.6,1.6,7.6,1.6,15c0,7.4,6,13.4,13.4,13.4c7.4,0,13.4-6,13.4-13.4C28.4,7.6,22.4,1.6,15,1.6z"/>
	</g>
	<g>
		<path class="st26" d="M12.6,15.1v8.7c0,0.1,0.1,0.2,0.2,0.2h3.2c0.1,0,0.2-0.1,0.2-0.2v-8.8h2.3c0.1,0,0.2-0.1,0.2-0.2l0.2-2.7
			c0-0.1-0.1-0.2-0.2-0.2h-2.6V9.9c0-0.4,0.4-0.8,0.8-0.8h1.8c0.1,0,0.2-0.1,0.2-0.2V6.2c0-0.1-0.1-0.2-0.2-0.2h-3
			c-1.8,0-3.2,1.5-3.2,3.2v2.6H11c-0.1,0-0.2,0.1-0.2,0.2v2.7c0,0.1,0.1,0.2,0.2,0.2h1.6V15.1z"/>
	</g>
</g>
</svg>
