<?xml version="1.0" encoding="utf-8"?>
<!-- Generator: Adobe Illustrator 24.0.2, SVG Export Plug-In . SVG Version: 6.00 Build 0)  -->
<svg version="1.1" id="Layer_1" xmlns="http://www.w3.org/2000/svg" xmlns:xlink="http://www.w3.org/1999/xlink" x="0px" y="0px"
	 viewBox="0 0 30 30" style="enable-background:new 0 0 30 30;" xml:space="preserve">
<style type="text/css">
	.st0{fill:#FE0002;}
	.st1{fill:none;stroke:url(#SVGID_1_);stroke-width:0.4177;stroke-miterlimit:10;}
	.st2{fill:#FFFFFF;stroke:url(#SVGID_2_);stroke-width:0.4177;stroke-miterlimit:10;}
	.st3{fill:url(#SVGID_3_);stroke:url(#SVGID_4_);stroke-width:0.4177;stroke-miterlimit:10;}
	.st4{fill:url(#SVGID_5_);stroke:url(#SVGID_6_);stroke-width:0.4177;stroke-miterlimit:10;}
	.st5{fill:url(#SVGID_7_);stroke:url(#SVGID_8_);stroke-width:0.4177;stroke-miterlimit:10;}
	.st6{fill:url(#SVGID_9_);stroke:url(#SVGID_10_);stroke-width:0.4177;stroke-miterlimit:10;}
	.st7{fill:url(#SVGID_11_);stroke:url(#SVGID_12_);stroke-width:0.4177;stroke-miterlimit:10;}
	.st8{fill:url(#SVGID_13_);stroke:url(#SVGID_14_);stroke-width:0.4177;stroke-miterlimit:10;}
	.st9{fill:url(#SVGID_15_);stroke:url(#SVGID_16_);stroke-width:0.4177;stroke-miterlimit:10;}
	.st10{fill:url(#SVGID_17_);stroke:url(#SVGID_18_);stroke-width:0.4177;stroke-miterlimit:10;}
	.st11{fill:url(#SVGID_19_);stroke:url(#SVGID_20_);stroke-width:0.4177;stroke-miterlimit:10;}
	.st12{fill:url(#SVGID_21_);stroke:url(#SVGID_22_);stroke-width:0.4177;stroke-miterlimit:10;}
	.st13{fill:url(#SVGID_23_);stroke:url(#SVGID_24_);stroke-width:0.4177;stroke-miterlimit:10;}
	.st14{fill:url(#SVGID_25_);stroke:url(#SVGID_26_);stroke-width:0.4177;stroke-miterlimit:10;}
	.st15{fill:url(#SVGID_27_);stroke:url(#SVGID_28_);stroke-width:0.4177;stroke-miterlimit:10;}
	.st16{fill:url(#SVGID_29_);stroke:url(#SVGID_30_);stroke-width:0.4177;stroke-miterlimit:10;}
	.st17{fill:url(#SVGID_31_);stroke:url(#SVGID_32_);stroke-width:0.4177;stroke-miterlimit:10;}
	.st18{fill:url(#SVGID_33_);stroke:url(#SVGID_34_);stroke-width:0.4177;stroke-miterlimit:10;}
	.st19{fill:url(#SVGID_35_);stroke:url(#SVGID_36_);stroke-width:0.4177;stroke-miterlimit:10;}
	.st20{fill:url(#SVGID_37_);stroke:url(#SVGID_38_);stroke-width:0.4177;stroke-miterlimit:10;}
	.st21{opacity:0.5;fill:#FE0002;}
	.st22{fill:#00CCFF;}
	.st23{fill-rule:evenodd;clip-rule:evenodd;fill:#FFFFFF;}
	.st24{fill:#007BBC;}
	.st25{fill:#FFFFFF;}
	.st26{fill:#245A9B;}
	.st27{fill-rule:evenodd;clip-rule:evenodd;fill:#245A9B;}
	.st28{fill:#00AEF7;}
</style>
<g>
	<circle class="st28" cx="15" cy="15" r="15"/>
	<path class="st25" d="M20.7,17.6c0,2.8-2.2,4.6-5.5,4.6c-2.9,0-5.8-1.3-5.8-3.6c0-0.7,0.5-1.3,1.2-1.3c1.7,0,1.7,2.5,4.4,2.5
		c1.9,0,2.6-1,2.6-1.8c0-2.6-8.3-1-8.3-6c0-2.7,2.2-4.5,5.7-4.3c3.3,0.2,5.2,1.6,5.4,3c0.1,0.9-0.5,1.6-1.5,1.6c-1.5,0-1.6-2-4.2-2
		c-1.2,0-2.1,0.5-2.1,1.5C12.5,14.1,20.7,12.8,20.7,17.6z"/>
</g>
</svg>
