<?xml version="1.0" encoding="utf-8"?>
<!-- Generator: Adobe Illustrator 28.0.0, SVG Export Plug-In . SVG Version: 6.00 Build 0)  -->
<!DOCTYPE svg PUBLIC "-//W3C//DTD SVG 1.0//EN" "http://www.w3.org/TR/2001/REC-SVG-20010904/DTD/svg10.dtd" [
	<!ENTITY st0 "fill:#FF5B00;">
	<!ENTITY st1 "fill-rule:evenodd;clip-rule:evenodd;fill:#FF5B00;">
]>
<svg version="1.0" id="Layer_1" xmlns="http://www.w3.org/2000/svg" xmlns:xlink="http://www.w3.org/1999/xlink" x="0px" y="0px"
	 width="30px" height="30px" viewBox="0 0 30 30" style="enable-background:new 0 0 30 30;" xml:space="preserve">
<g>
	<g>
		<path style="&st0;" d="M15,30C6.7,30,0,23.3,0,15S6.7,0,15,0s15,6.7,15,15S23.3,30,15,30z M15,1.6C7.6,1.6,1.6,7.6,1.6,15
			s6,13.4,13.4,13.4s13.4-6,13.4-13.4S22.4,1.6,15,1.6z"/>
	</g>
	<g>
		<g>
			<path style="&st1;" d="M11.4,22.1C11.4,22.1,11.1,22.1,11.4,22.1C11.4,22.1,11.3,22.1,11.4,22.1z"/>
		</g>
		<g>
			<path style="&st1;" d="M12,22.2C12,22.1,12.3,22.2,12,22.2C12,22.1,12,22.2,12,22.2z"/>
		</g>
		<g>
			<path style="&st1;" d="M18.2,7.8C18.1,7.8,18.1,7.8,18.2,7.8C18.1,7.8,18.1,7.8,18.2,7.8z"/>
		</g>
	</g>
</g>
<g>
	<path style="&st0;" d="M5,11.8c1,0.6,2,1.2,3,1.8c2.1,1.3,4.1,2.5,6.2,3.8c0.5,0.3,1,0.3,1.6,0c3-1.8,5.9-3.6,8.9-5.4
		c0.1,0,0.2-0.1,0.3-0.2c0,0.1,0,0.2,0,0.3c0,2.4,0,4.8,0,7.2c0,1.8-1.3,3-3,3c-4.6,0-9.3,0-13.9,0c-1.8,0-3-1.3-3-3
		C5.1,16.9,5,11.8,5,11.8C5,11.8,5,11.9,5,11.8z"/>
	<path style="&st0;" d="M15,7.7c2.3,0,4.7,0,7,0c1.3,0,2.3,0.8,2.8,1.9c0.1,0.3,0.1,0.4-0.2,0.6c-3.1,1.9-6.2,3.8-9.3,5.7
		c-0.2,0.1-0.3,0.1-0.5,0c-3.1-1.9-6.2-3.8-9.4-5.7C5.1,10,5.1,9.8,5.2,9.6C5.6,8.4,6.7,7.7,8,7.7C10.3,7.6,12.7,7.7,15,7.7z"/>
</g>
</svg>
