<?xml version="1.0" encoding="utf-8"?>
<!-- Generator: Adobe Illustrator 28.0.0, SVG Export Plug-In . SVG Version: 6.00 Build 0)  -->
<svg version="1.2" baseProfile="tiny" id="Layer_1" xmlns="http://www.w3.org/2000/svg" xmlns:xlink="http://www.w3.org/1999/xlink"
	 x="0px" y="0px" width="30px" height="30px" viewBox="0 0 30 30" overflow="visible" xml:space="preserve">
<g>
	<path fill="#00CCFF" d="M23.5,9.5L23.5,9.5C23.5,9.5,23.5,9.6,23.5,9.5L23.5,9.5z"/>
	<path fill="#00CCFF" d="M23.5,9.5C23.5,9.5,23.6,9.5,23.5,9.5C23.7,9.6,23.7,9.7,23.5,9.5z"/>
	<path fill="#00CCFF" d="M12,22.2C12,22.1,12.3,22.2,12,22.2L12,22.2z"/>
	<g>
		<g>
			<path fill="#FFFFFF" d="M23.5,9.5C23.5,9.5,23.5,9.6,23.5,9.5L23.5,9.5L23.5,9.5z"/>
			<path fill="#FFFFFF" d="M23.5,9.5C23.5,9.5,23.6,9.5,23.5,9.5C23.7,9.6,23.7,9.7,23.5,9.5z"/>
		</g>
		<g>
			<path fill-rule="evenodd" fill="#FFFFFF" d="M11.4,22.1C11.4,22.1,11.1,22.1,11.4,22.1C11.4,22.1,11.3,22.1,11.4,22.1z"/>
		</g>
		<g>
			<path fill-rule="evenodd" fill="#FFFFFF" d="M12,22.2C12,22.1,12.3,22.2,12,22.2L12,22.2z"/>
		</g>
		<g>
			<path fill-rule="evenodd" fill="#FFFFFF" d="M18.2,7.8C18.1,7.8,18.1,7.8,18.2,7.8C18.1,7.8,18.1,7.8,18.2,7.8z"/>
		</g>
	</g>
</g>
<g>
	<g>
		<path fill="#FF5B00" d="M29.5,11.2c-0.1-0.5-0.3-1-0.4-1.4C28.6,8.5,27.9,7.2,27,6c-0.4-0.6-0.9-1.1-1.4-1.6
			c-0.3-0.4-0.7-0.7-1.1-1s-0.8-0.6-1.1-0.9C23,2.3,22.6,2,22.2,1.8c-0.6-0.3-1.3-0.7-2-0.9C18.5,0.3,16.8,0,15,0s-3.5,0.3-5.2,0.9
			c-0.7,0.2-1.4,0.6-2,0.9C7.4,2,7,2.3,6.6,2.6C6.2,2.8,5.8,3.1,5.5,3.4S4.7,4,4.4,4.4C3.9,4.9,3.4,5.4,3,6C2.1,7.2,1.4,8.5,0.9,9.8
			c-0.2,0.5-0.3,0.9-0.4,1.4C0.2,12.5,0,13.7,0,15c0,1.3,0.2,2.5,0.5,3.8c0.1,0.5,0.3,1,0.4,1.4C1.4,21.5,2.1,22.8,3,24
			c0.4,0.6,0.9,1.1,1.4,1.6c0.3,0.4,0.7,0.7,1.1,1s0.8,0.6,1.1,0.9C7,27.7,7.4,28,7.8,28.2c0.6,0.3,1.3,0.7,2,0.9
			c1.6,0.6,3.3,0.9,5.2,0.9s3.5-0.3,5.2-0.9c0.7-0.2,1.4-0.6,2-0.9c0.4-0.2,0.8-0.5,1.2-0.8c0.4-0.3,0.8-0.6,1.1-0.9s0.7-0.6,1.1-1
			c0.5-0.5,1-1,1.4-1.6c0.9-1.1,1.6-2.4,2.1-3.8c0.2-0.5,0.3-0.9,0.4-1.4c0.3-1.2,0.5-2.5,0.5-3.8S29.8,12.5,29.5,11.2z M25.2,19.3
			c0,1.8-1.5,3-3.2,3H8.1c-1.8,0-3-1.3-3-3v-7.5c0.6,0.4,1.2,0.7,1.8,1.1c0.4,0.2,0.8,0.5,1.3,0.8c2,1.3,4.1,2.5,6.2,3.8
			c0.5,0.3,1,0.3,1.6,0c2-1.2,3.9-2.4,5.9-3.6c1-0.6,2.3-1.4,3.3-2l0,0c0,0.1,0,0.2,0,0.3V19.3L25.2,19.3z M8,7.7h14
			c1.2,0,2.3,0.8,2.8,1.9c0.1,0.3,0.1,0.4-0.2,0.6c-0.9,0.5-1.8,1.1-2.7,1.6c-2.2,1.4-4.4,2.7-6.7,4.1c-0.2,0.1-0.3,0.1-0.5,0
			c-2.6-1.6-5.2-3.2-7.7-4.7c-0.5-0.3-1.1-0.7-1.6-1C5.1,10,5.1,9.8,5.2,9.6C5.6,8.4,6.7,7.7,8,7.7z"/>
	</g>
	<g>
		<g>
			<path fill-rule="evenodd" fill="#FF5B00" d="M11.4,22.1C11.4,22.1,11.1,22.1,11.4,22.1C11.4,22.1,11.3,22.1,11.4,22.1z"/>
		</g>
		<g>
			<path fill-rule="evenodd" fill="#FF5B00" d="M12,22.2C12,22.1,12.3,22.2,12,22.2L12,22.2z"/>
		</g>
		<g>
			<path fill-rule="evenodd" fill="#FF5B00" d="M18.2,7.8C18.1,7.8,18.1,7.8,18.2,7.8C18.1,7.8,18.1,7.8,18.2,7.8z"/>
		</g>
	</g>
</g>
<g>
	<path fill="#FF5B00" d="M12,22.2C12,22.1,12.3,22.2,12,22.2L12,22.2z"/>
	<path fill="#FF5B00" d="M23.5,9.5L23.5,9.5C23.5,9.5,23.5,9.6,23.5,9.5L23.5,9.5z"/>
	<path fill="#FF5B00" d="M23.5,9.5C23.5,9.5,23.6,9.5,23.5,9.5C23.7,9.6,23.7,9.7,23.5,9.5z"/>
</g>
</svg>
