<?xml version="1.0" encoding="UTF-8"?>
<svg id="uuid-4c313421-ff85-4708-bc7e-97429e4e0dde" xmlns="http://www.w3.org/2000/svg" width="72"
  height="72" viewBox="0 0 72 72">
  <path
    d="m61.1,16.4v48.6c0,1.9-1.5,3.4-3.3,3.4H15.9c-1.9,0-3.3-1.5-3.3-3.4V6.9c0-1.8,1.5-3.3,3.3-3.3h34.7v11.2c0,.9.7,1.7,1.7,1.7h8.8Z"
    style="fill:#2d98db; stroke-width:0px;" />
  <path
    d="m61.1,16.4v48.6c0,1.9-1.5,3.4-3.3,3.4H15.9c-1.9,0-3.3-1.5-3.3-3.4V6.9c0-1.8,1.5-3.3,3.3-3.3h34.7V1.1H15.9c-3.2,0-5.8,2.6-5.8,5.8v58.1c0,3.2,2.6,5.8,5.8,5.8h41.9c3.2,0,5.8-2.6,5.8-5.8V16.4h-2.5Z"
    style="stroke-width:0px;" />
  <path
    d="m65.5,44.9v17.5c0,2.2-1.7,3.9-3.9,3.9H9c-1.4,0-2.5-1.1-2.5-2.5v-25.2l2.6,2.4h52.6c2.2,0,3.9,1.7,3.9,3.9Z"
    style="fill:#fff; stroke-width:0px;" />
  <path
    d="m27.1,49.3h-3.4v11.2c0,.6-.1,1.1-.4,1.4-.3.3-.7.5-1.1.5s-.8-.2-1.1-.5c-.3-.3-.4-.8-.4-1.4v-11.2h-3.4c-.5,0-.9-.1-1.2-.4-.3-.2-.4-.5-.4-.9s.1-.7.4-.9c.3-.2.7-.3,1.2-.3h9.9c.5,0,.9.1,1.2.4.3.2.4.6.4.9s-.1.7-.4.9c-.3.2-.7.4-1.2.4Z"
    style="stroke-width:0px;" />
  <path
    d="m30,59.2l3.5-5-2.9-4.5c-.3-.4-.5-.8-.6-1.1-.1-.3-.2-.6-.2-.9s.1-.6.4-.8.6-.4,1-.4.8.1,1,.4c.2.3.6.7,1,1.4l2.3,3.7,2.5-3.7c.2-.3.4-.6.5-.8.1-.2.3-.4.4-.6.1-.1.3-.3.4-.3.2,0,.4-.1.6-.1.4,0,.7.1,1,.4s.4.5.4.8c0,.5-.3,1.1-.8,1.9l-3,4.6,3.3,5c.3.4.5.8.6,1.1s.2.6.2.8,0,.5-.2.7c-.1.2-.3.4-.5.5-.2.1-.5.2-.7.2s-.5,0-.7-.2c-.2-.1-.4-.3-.5-.5s-.4-.5-.7-1.1l-2.7-4.3-2.9,4.4c-.2.4-.4.6-.5.7,0,.1-.2.3-.3.4-.1.1-.3.2-.5.3-.2,0-.4.1-.6.1-.4,0-.7-.1-.9-.3-.3-.2-.4-.6-.4-1s.3-1.2.8-1.9Z"
    style="stroke-width:0px;" />
  <path
    d="m53.7,49.3h-3.4v11.2c0,.6-.1,1.1-.4,1.4-.3.3-.7.5-1.1.5s-.8-.2-1.1-.5c-.3-.3-.4-.8-.4-1.4v-11.2h-3.4c-.5,0-.9-.1-1.2-.4-.3-.2-.4-.5-.4-.9s.1-.7.4-.9c.3-.2.7-.3,1.2-.3h9.9c.5,0,.9.1,1.2.4.3.2.4.6.4.9s-.1.7-.4.9c-.3.2-.7.4-1.2.4Z"
    style="stroke-width:0px;" />
  <path d="m10.3,36v5h-1.4c-1.4,0-2.5-1-2.5-2.4h0c0-1.4,1.1-2.6,2.5-2.6h1.4Z"
    style="stroke-width:0px;" />
  <rect x="18.3" y="14.2" width="29.4" height="2.2" rx=".4" ry=".4"
    style="fill:#fff; stroke-width:0px;" />
  <rect x="18.3" y="21" width="37.1" height="2.2" rx=".4" ry=".4"
    style="fill:#fff; stroke-width:0px;" />
  <rect x="18.3" y="27.8" width="37.1" height="2.2" rx=".4" ry=".4"
    style="fill:#fff; stroke-width:0px;" />
  <path d="m63.6,16.4h-11.3c-.9,0-1.7-.7-1.7-1.7V1.1h0c.5,0,1,.2,1.4.6l11,13.4c.4.4.6.9.6,1.4Z"
    style="stroke-width:0px;" />
</svg>
