<?xml version="1.0" encoding="UTF-8"?>
<svg id="uuid-b633d4a2-2c63-4e6e-bdb9-d8581ed266ee" xmlns="http://www.w3.org/2000/svg" width="72"
  height="72" viewBox="0 0 72 72">
  <path
    d="m18.3,15.9v-1.3c0-.2.2-.4.4-.4h28.5c.2,0,.4.2.4.4v1.3c0,.2-.2.4-.4.4h-28.5c-.2,0-.4-.2-.4-.4Z"
    style="fill:#fff; stroke-width:0px;" />
  <path
    d="m18.3,22.7v-1.3c0-.2.2-.4.4-.4h36.3c.2,0,.4.2.4.4v1.3c0,.2-.2.4-.4.4H18.7c-.2,0-.4-.2-.4-.4Z"
    style="fill:#fff; stroke-width:0px;" />
  <path
    d="m18.3,29.5v-1.3c0-.2.2-.4.4-.4h36.3c.2,0,.4.2.4.4v1.3c0,.2-.2.4-.4.4H18.7c-.2,0-.4-.2-.4-.4Z"
    style="fill:#fff; stroke-width:0px;" />
  <path
    d="m63.9,41.1c0,0-.2,0-.3-.1v-24.6c0-.5-.2-1-.6-1.4L52,1.7c-.4-.4-.9-.6-1.4-.6H15.9c-3.2,0-5.8,2.6-5.8,5.8v28.6h-1.1c-.8,0-1.6.3-2.1.9-.6.6-.9,1.3-.9,2.2v25.2c0,1.7,1.4,3,3,3h1.4c.7,2.3,2.9,4,5.5,4h41.9c2.7,0,5-1.9,5.7-4.4.1,0,.2-.1.3-.2,1.4-.8,2.2-2.2,2.2-3.8v-17.5c0-1.6-.8-3-2.2-3.8ZM12.6,6.9c0-1.8,1.5-3.3,3.3-3.3h34.8v11.2c0,.9.7,1.7,1.7,1.7h8.8v24.1H12.6V6.9Zm45.2,61.5H15.9c-1.2,0-2.2-.6-2.8-1.6h47.5c-.6.9-1.6,1.6-2.8,1.6Zm7.2-6c0,1.2-.7,2.4-1.7,3-.5.3-1.1.5-1.7.5H9c-1.1,0-2-.9-2-2v-25.2c0-.5.2-1.1.6-1.5.4-.4.9-.6,1.4-.6h.6v5h52c.6,0,1.2.2,1.7.5,1.1.6,1.7,1.7,1.7,2.9v17.5Z"
    style="fill:#fff; stroke-width:0px;" />
  <path
    d="m28.7,46.7c-.4-.3-.9-.5-1.5-.5h-9.9c-.6,0-1.1.2-1.5.5-.4.3-.6.8-.6,1.3s.2,1,.5,1.3c.3.3.9.5,1.5.5h2.9v10.7c0,.8.2,1.4.6,1.8.4.4.9.6,1.5.6s1.1-.2,1.5-.6c.4-.4.6-1,.6-1.8v-10.7h2.9c.7,0,1.2-.2,1.5-.5.4-.3.6-.8.6-1.3s-.2-1-.6-1.3Zm-.7,1.9c-.2.2-.5.2-.9.2h-3.9v11.7c0,.5-.1.9-.3,1.1-.2.2-.5.3-.8.3s-.6,0-.8-.3c-.2-.2-.3-.6-.3-1.1v-11.7h-3.9c-.4,0-.7,0-.9-.2-.2-.1-.2-.3-.2-.5s0-.4.2-.6c.2-.2.5-.2.9-.2h9.9c.4,0,.7,0,.9.2.2.1.2.3.2.6s-.1.5-.2.5Zm27.2-1.9c-.4-.3-.9-.5-1.5-.5h-9.9c-.6,0-1.1.2-1.5.5-.2.2-.4.5-.5.8,0-.4-.2-.7-.5-1-.3-.3-.8-.5-1.3-.5s-.5,0-.8.1c-.2,0-.4.2-.6.5-.1.2-.3.4-.5.6-.1.2-.3.5-.5.8l-2,3.1-1.9-3.1c-.5-.8-.8-1.2-1.1-1.5-.6-.6-1.9-.7-2.7,0-.4.3-.5.7-.5,1.2s0,.7.2,1.1c.1.3.3.7.6,1.2l2.7,4.2-3.3,4.8c-.6.8-.9,1.6-.9,2.2s.3,1.2.5,1.4c.4.3.8.5,1.3.5s.6,0,.8-.2c.2-.1.4-.2.7-.4.2-.2.3-.3.4-.5,0-.1.2-.3.4-.6l2.6-3.9,2.3,3.6c.3.5.6.9.7,1,.2.2.4.5.7.6.5.3,1.4.4,2,0,.3-.2.5-.4.7-.7.2-.3.2-.6.2-.9s0-.7-.2-1c-.1-.3-.3-.7-.7-1.2l-3.1-4.8,2.9-4.3c.4-.6.7-1.2.8-1.6,0,.5.2.8.5,1.1.3.3.8.5,1.5.5h2.9v10.7c0,.8.2,1.4.6,1.8.4.4.9.6,1.5.6s1.1-.2,1.5-.6c.4-.4.6-1,.6-1.8v-10.7h2.9c.7,0,1.2-.2,1.5-.5.4-.3.6-.8.6-1.3s-.2-1-.6-1.3Zm-15.2,2.6l-3.2,4.8,3.5,5.3c.3.5.5.8.6,1,0,.2.1.4.1.6s0,.3-.1.4h0c0,.1-.2.2-.3.3-.3.2-.7.2-1,0-.2,0-.3-.2-.4-.3-.1-.2-.4-.5-.7-1l-3.1-4.9-3.4,5.2c-.2.3-.3.5-.4.6,0,.1-.2.2-.3.3,0,0-.2.2-.3.2-.3.1-.8.1-1-.1-.1-.1-.2-.4-.2-.6s.1-.8.7-1.6l3.7-5.3-3.1-4.8c-.3-.4-.5-.8-.6-1.1-.1-.2-.2-.5-.2-.7s0-.2.2-.4c.4-.3,1-.3,1.3,0,.3.3.7.9.9,1.4l2.7,4.4,2.9-4.4c.2-.3.4-.6.5-.8.1-.2.3-.4.4-.5,0,0,.2-.2.3-.2.3-.1.8,0,1,.1.2.2.2.3.2.5s-.1.7-.7,1.6Zm14.5-.7c-.2.2-.5.2-.9.2h-3.9v11.7c0,.5-.1.9-.3,1.1-.4.4-1.1.4-1.5,0-.2-.2-.3-.6-.3-1.1v-11.7h-3.9c-.4,0-.7,0-.9-.2,0,0-.2-.2-.2-.5s.1-.5.2-.6c.2-.2.5-.2.9-.2h9.9c.4,0,.7,0,.9.2.2.1.2.3.2.6s-.1.5-.2.5Zm.7-1.9c-.4-.3-.9-.5-1.5-.5h-9.9c-.6,0-1.1.2-1.5.5-.2.2-.4.5-.5.8,0-.4-.2-.7-.5-1-.3-.3-.8-.5-1.3-.5s-.5,0-.8.1c-.2,0-.4.2-.6.5-.1.2-.3.4-.5.6-.1.2-.3.5-.5.8l-2,3.1-1.9-3.1c-.5-.8-.8-1.2-1.1-1.5-.6-.6-1.9-.7-2.7,0-.4.3-.5.7-.5,1.2s0,.7.2,1.1c.1.3.3.7.6,1.2l2.7,4.2-3.3,4.8c-.6.8-.9,1.6-.9,2.2s.3,1.2.5,1.4c.4.3.8.5,1.3.5s.6,0,.8-.2c.2-.1.4-.2.7-.4.2-.2.3-.3.4-.5,0-.1.2-.3.4-.6l2.6-3.9,2.3,3.6c.3.5.6.9.7,1,.2.2.4.5.7.6.5.3,1.4.4,2,0,.3-.2.5-.4.7-.7.2-.3.2-.6.2-.9s0-.7-.2-1c-.1-.3-.3-.7-.7-1.2l-3.1-4.8,2.9-4.3c.4-.6.7-1.2.8-1.6,0,.5.2.8.5,1.1.3.3.8.5,1.5.5h2.9v10.7c0,.8.2,1.4.6,1.8.4.4.9.6,1.5.6s1.1-.2,1.5-.6c.4-.4.6-1,.6-1.8v-10.7h2.9c.7,0,1.2-.2,1.5-.5.4-.3.6-.8.6-1.3s-.2-1-.6-1.3Zm-15.2,2.6l-3.2,4.8,3.5,5.3c.3.5.5.8.6,1,0,.2.1.4.1.6s0,.3-.1.4h0c0,.1-.2.2-.3.3-.3.2-.7.2-1,0-.2,0-.3-.2-.4-.3-.1-.2-.4-.5-.7-1l-3.1-4.9-3.4,5.2c-.2.3-.3.5-.4.6,0,.1-.2.2-.3.3,0,0-.2.2-.3.2-.3.1-.8.1-1-.1-.1-.1-.2-.4-.2-.6s.1-.8.7-1.6l3.7-5.3-3.1-4.8c-.3-.4-.5-.8-.6-1.1-.1-.2-.2-.5-.2-.7s0-.2.2-.4c.4-.3,1-.3,1.3,0,.3.3.7.9.9,1.4l2.7,4.4,2.9-4.4c.2-.3.4-.6.5-.8.1-.2.3-.4.4-.5,0,0,.2-.2.3-.2.3-.1.8,0,1,.1.2.2.2.3.2.5s-.1.7-.7,1.6Zm14.5-.7c-.2.2-.5.2-.9.2h-3.9v11.7c0,.5-.1.9-.3,1.1-.4.4-1.1.4-1.5,0-.2-.2-.3-.6-.3-1.1v-11.7h-3.9c-.4,0-.7,0-.9-.2,0,0-.2-.2-.2-.5s.1-.5.2-.6c.2-.2.5-.2.9-.2h9.9c.4,0,.7,0,.9.2.2.1.2.3.2.6s-.1.5-.2.5Zm-25.8-1.9c-.4-.3-.9-.5-1.5-.5h-9.9c-.6,0-1.1.2-1.5.5-.4.3-.6.8-.6,1.3s.2,1,.5,1.3c.3.3.9.5,1.5.5h2.9v10.7c0,.8.2,1.4.6,1.8.4.4.9.6,1.5.6s1.1-.2,1.5-.6c.4-.4.6-1,.6-1.8v-10.7h2.9c.7,0,1.2-.2,1.5-.5.4-.3.6-.8.6-1.3s-.2-1-.6-1.3Zm-.7,1.9c-.2.2-.5.2-.9.2h-3.9v11.7c0,.5-.1.9-.3,1.1-.2.2-.5.3-.8.3s-.6,0-.8-.3c-.2-.2-.3-.6-.3-1.1v-11.7h-3.9c-.4,0-.7,0-.9-.2-.2-.1-.2-.3-.2-.5s0-.4.2-.6c.2-.2.5-.2.9-.2h9.9c.4,0,.7,0,.9.2.2.1.2.3.2.6s-.1.5-.2.5Zm27.2-1.9c-.4-.3-.9-.5-1.5-.5h-9.9c-.6,0-1.1.2-1.5.5-.2.2-.4.5-.5.8,0-.4-.2-.7-.5-1-.3-.3-.8-.5-1.3-.5s-.5,0-.8.1c-.2,0-.4.2-.6.5-.1.2-.3.4-.5.6-.1.2-.3.5-.5.8l-2,3.1-1.9-3.1c-.5-.8-.8-1.2-1.1-1.5-.6-.6-1.9-.7-2.7,0-.4.3-.5.7-.5,1.2s0,.7.2,1.1c.1.3.3.7.6,1.2l2.7,4.2-3.3,4.8c-.6.8-.9,1.6-.9,2.2s.3,1.2.5,1.4c.4.3.8.5,1.3.5s.6,0,.8-.2c.2-.1.4-.2.7-.4.2-.2.3-.3.4-.5,0-.1.2-.3.4-.6l2.6-3.9,2.3,3.6c.3.5.6.9.7,1,.2.2.4.5.7.6.5.3,1.4.4,2,0,.3-.2.5-.4.7-.7.2-.3.2-.6.2-.9s0-.7-.2-1c-.1-.3-.3-.7-.7-1.2l-3.1-4.8,2.9-4.3c.4-.6.7-1.2.8-1.6,0,.5.2.8.5,1.1.3.3.8.5,1.5.5h2.9v10.7c0,.8.2,1.4.6,1.8.4.4.9.6,1.5.6s1.1-.2,1.5-.6c.4-.4.6-1,.6-1.8v-10.7h2.9c.7,0,1.2-.2,1.5-.5.4-.3.6-.8.6-1.3s-.2-1-.6-1.3Zm-15.2,2.6l-3.2,4.8,3.5,5.3c.3.5.5.8.6,1,0,.2.1.4.1.6s0,.3-.1.4h0c0,.1-.2.2-.3.3-.3.2-.7.2-1,0-.2,0-.3-.2-.4-.3-.1-.2-.4-.5-.7-1l-3.1-4.9-3.4,5.2c-.2.3-.3.5-.4.6,0,.1-.2.2-.3.3,0,0-.2.2-.3.2-.3.1-.8.1-1-.1-.1-.1-.2-.4-.2-.6s.1-.8.7-1.6l3.7-5.3-3.1-4.8c-.3-.4-.5-.8-.6-1.1-.1-.2-.2-.5-.2-.7s0-.2.2-.4c.4-.3,1-.3,1.3,0,.3.3.7.9.9,1.4l2.7,4.4,2.9-4.4c.2-.3.4-.6.5-.8.1-.2.3-.4.4-.5,0,0,.2-.2.3-.2.3-.1.8,0,1,.1.2.2.2.3.2.5s-.1.7-.7,1.6Zm14.5-.7c-.2.2-.5.2-.9.2h-3.9v11.7c0,.5-.1.9-.3,1.1-.4.4-1.1.4-1.5,0-.2-.2-.3-.6-.3-1.1v-11.7h-3.9c-.4,0-.7,0-.9-.2,0,0-.2-.2-.2-.5s.1-.5.2-.6c.2-.2.5-.2.9-.2h9.9c.4,0,.7,0,.9.2.2.1.2.3.2.6s-.1.5-.2.5Zm-25.8-1.9c-.4-.3-.9-.5-1.5-.5h-9.9c-.6,0-1.1.2-1.5.5-.4.3-.6.8-.6,1.3s.2,1,.5,1.3c.3.3.9.5,1.5.5h2.9v10.7c0,.8.2,1.4.6,1.8.4.4.9.6,1.5.6s1.1-.2,1.5-.6c.4-.4.6-1,.6-1.8v-10.7h2.9c.7,0,1.2-.2,1.5-.5.4-.3.6-.8.6-1.3s-.2-1-.6-1.3Zm-.7,1.9c-.2.2-.5.2-.9.2h-3.9v11.7c0,.5-.1.9-.3,1.1-.2.2-.5.3-.8.3s-.6,0-.8-.3c-.2-.2-.3-.6-.3-1.1v-11.7h-3.9c-.4,0-.7,0-.9-.2-.2-.1-.2-.3-.2-.5s0-.4.2-.6c.2-.2.5-.2.9-.2h9.9c.4,0,.7,0,.9.2.2.1.2.3.2.6s-.1.5-.2.5Z"
    style="fill:#fff; stroke-width:0px;" />
  <path
    d="m47.7,14.6v1.3c0,.2-.2.4-.4.4h-28.5c-.2,0-.4-.2-.4-.4v-1.3c0-.2.2-.4.4-.4h28.5c.2,0,.4.2.4.4Z"
    style="fill:#fff; stroke-width:0px;" />
  <path
    d="m55.4,21.4v1.3c0,.2-.2.4-.4.4H18.7c-.2,0-.4-.2-.4-.4v-1.3c0-.2.2-.4.4-.4h36.3c.2,0,.4.2.4.4Z"
    style="fill:#fff; stroke-width:0px;" />
  <path
    d="m55.4,28.2v1.3c0,.2-.2.4-.4.4H18.7c-.2,0-.4-.2-.4-.4v-1.3c0-.2.2-.4.4-.4h36.3c.2,0,.4.2.4.4Z"
    style="fill:#fff; stroke-width:0px;" />
</svg>
