<?xml version="1.0" encoding="utf-8"?>
<!-- Generator: Adobe Illustrator 28.0.0, SVG Export Plug-In . SVG Version: 6.00 Build 0)  -->
<svg version="1.2" baseProfile="tiny" id="Layer_1" xmlns="http://www.w3.org/2000/svg" xmlns:xlink="http://www.w3.org/1999/xlink"
	 x="0px" y="0px" width="30px" height="30px" viewBox="0 0 30 30" overflow="visible" xml:space="preserve">
<g>
	<circle fill="#29A71A" cx="15" cy="15" r="15"/>
</g>
<g>
	<path fill="#FFFFFF" d="M15,24.2c-1.4,0-2.7-0.3-3.9-0.9c-0.1-0.1-0.3-0.1-0.5,0c-1.4,0.3-2.8,0.7-4.2,1c-0.5,0.1-0.7-0.1-0.6-0.6
		c0.3-1.4,0.6-2.8,0.9-4.2c0-0.2,0-0.4-0.1-0.6c-2.6-5.5,0.8-12,6.8-13c5.1-0.9,9.9,2.6,10.7,7.6c0.8,5.1-2.7,9.9-7.8,10.6
		C15.9,24.1,15.5,24.2,15,24.2z M8.3,21.7c0.1,0,0.2,0,0.3-0.1c0.7-0.2,1.4-0.3,2.1-0.5c0.3-0.1,0.5,0,0.8,0.1
		c1.3,0.7,2.7,1,4.1,0.9c4.1-0.4,7.1-4.2,6.5-8.3c-0.5-3.1-2.8-5.4-5.9-6c-2.9-0.6-6,0.9-7.5,3.5c-1.3,2.3-1.3,4.6-0.1,6.9
		c0.2,0.4,0.3,0.8,0.2,1.2C8.6,20.2,8.5,20.9,8.3,21.7z"/>
	<path fill="#FFFFFF" d="M17.6,19.4c-1,0-1.7-0.2-2.3-0.5c-1.8-0.9-3.3-2.3-4.3-4c-0.4-0.7-0.7-1.5-0.6-2.3c0-0.9,0.6-1.5,1.3-2
		c0.3-0.2,0.7-0.1,0.9,0.3c0.3,0.6,0.6,1.2,0.8,1.8c0.1,0.2,0,0.4-0.1,0.6c-0.1,0.2-0.2,0.3-0.3,0.4c-0.2,0.3-0.3,0.6,0,0.9
		c0.8,1,1.7,1.9,2.9,2.5c0.4,0.2,0.6,0.2,0.9-0.1c0.4-0.6,1-0.7,1.6-0.4c0.4,0.2,0.8,0.2,1.2,0.3c0.5,0.2,0.7,0.6,0.4,1.1
		C19.3,18.9,18.5,19.5,17.6,19.4z"/>
</g>
</svg>
