<?xml version="1.0" encoding="utf-8"?>
<!-- Generator: Adobe Illustrator 28.0.0, SVG Export Plug-In . SVG Version: 6.00 Build 0)  -->
<svg version="1.2" baseProfile="tiny" id="Layer_1" xmlns="http://www.w3.org/2000/svg" xmlns:xlink="http://www.w3.org/1999/xlink"
	 x="0px" y="0px" width="30px" height="30px" viewBox="0 0 30 30" overflow="visible" xml:space="preserve">
<g>
	<path fill="#29A71A" d="M29.5,11.2c-0.1-0.5-0.3-1-0.4-1.4C28.6,8.5,27.9,7.2,27,6c-0.4-0.6-0.9-1.1-1.4-1.6
		c-0.3-0.3-0.7-0.7-1.1-1c-0.4-0.3-0.8-0.6-1.1-0.9C23,2.3,22.6,2,22.2,1.8c-0.6-0.3-1.3-0.7-2-0.9C18.5,0.3,16.8,0,15,0
		s-3.5,0.3-5.2,0.9c-0.7,0.2-1.4,0.6-2,0.9C7.4,2,7,2.3,6.6,2.6C6.2,2.8,5.8,3.1,5.5,3.4c-0.4,0.3-0.7,0.6-1.1,1
		C3.9,4.9,3.4,5.5,3,6C2.1,7.2,1.4,8.5,0.9,9.8c-0.2,0.5-0.3,0.9-0.4,1.4C0.2,12.5,0,13.7,0,15s0.2,2.5,0.5,3.8
		c0.1,0.5,0.3,1,0.4,1.4C1.4,21.5,2.1,22.8,3,24c0.4,0.6,0.9,1.1,1.4,1.6c0.3,0.3,0.7,0.7,1.1,1c0.4,0.3,0.8,0.6,1.1,0.9
		C7,27.7,7.4,28,7.8,28.2c0.6,0.3,1.3,0.7,2,0.9c1.6,0.6,3.3,0.9,5.2,0.9s3.5-0.3,5.2-0.9c0.7-0.2,1.4-0.6,2-0.9
		c0.4-0.2,0.8-0.5,1.2-0.8c0.4-0.3,0.8-0.6,1.1-0.9c0.4-0.3,0.7-0.6,1.1-1c0.5-0.5,1-1.1,1.4-1.6c0.9-1.2,1.6-2.4,2.1-3.8
		c0.2-0.5,0.3-0.9,0.4-1.4c0.3-1.2,0.5-2.5,0.5-3.8S29.8,12.5,29.5,11.2z M15,28.4c-7.4,0-13.4-6-13.4-13.4S7.6,1.6,15,1.6
		s13.4,6,13.4,13.4S22.4,28.4,15,28.4z"/>
</g>
<g>
	<path fill="#29A71A" d="M24.1,13.5C23.3,8.4,18.5,5,13.4,5.8c-6,1-9.4,7.5-6.8,13c0.1,0.2,0.1,0.4,0.1,0.6
		c-0.3,1.4-0.6,2.8-0.9,4.2c-0.1,0.5,0.1,0.7,0.6,0.6c1.4-0.3,2.8-0.7,4.2-1c0.1,0,0.3,0,0.5,0c1.2,0.5,2.5,0.8,3.9,0.9
		c0.5,0,0.9,0,1.4-0.1C21.4,23.3,24.9,18.6,24.1,13.5z M15.7,22.1c-1.5,0.1-2.8-0.2-4.1-0.9c-0.3-0.1-0.5-0.2-0.8-0.1
		c-0.7,0.2-1.4,0.3-2.1,0.5c-0.1,0-0.2,0-0.3,0.1c0.2-0.8,0.3-1.5,0.5-2.2c0.1-0.5,0.1-0.8-0.2-1.2c-1.2-2.3-1.1-4.7,0.1-6.9
		c1.5-2.7,4.6-4.1,7.5-3.5c3.1,0.6,5.4,3,5.9,6C22.8,17.9,19.8,21.8,15.7,22.1z"/>
	<path fill="#29A71A" d="M19.8,18c-0.6,0.9-1.3,1.5-2.2,1.4c-1,0-1.7-0.2-2.3-0.5c-1.8-0.9-3.3-2.2-4.3-4c-0.4-0.7-0.7-1.5-0.6-2.3
		c0.1-0.9,0.6-1.5,1.3-2c0.3-0.2,0.7-0.1,0.9,0.3c0.3,0.6,0.6,1.2,0.8,1.8c0.1,0.2,0,0.4-0.1,0.6c-0.1,0.2-0.2,0.3-0.3,0.4
		c-0.2,0.3-0.3,0.6,0,0.9c0.8,1,1.7,1.9,2.8,2.5c0.4,0.2,0.6,0.2,0.9-0.1c0.4-0.6,1-0.7,1.6-0.4c0.4,0.1,0.8,0.2,1.2,0.3
		C19.9,17.1,20.1,17.5,19.8,18z"/>
</g>
</svg>
