<?xml version="1.0" encoding="utf-8"?>
<svg version="1.1" id="Capa_1" xmlns="http://www.w3.org/2000/svg" xmlns:xlink="http://www.w3.org/1999/xlink" x="0px" y="0px" viewBox="0 0 512 512" style="enable-background:new 0 0 512 512;" xml:space="preserve">
	<style type="text/css">
		.st0{fill:url(#SVGID_1_);}
		.st1{fill:url(#SVGID_2_);}
		.st2{fill:#AAAAA8;}
		.st3{fill:#404041;}
		.st4{fill:#6DB2E7;}
		.st5{fill:#989997;}
		.st6{fill:#8BBFE7;}
		.st7{fill:#4A4A49;}
		.st8{fill:#41B773;}
		.st9{fill:#FAAF40;}
	</style>
	<g>
		<g>
			<linearGradient id="SVGID_1_" gradientUnits="userSpaceOnUse" x1="256" y1="415.3763" x2="256" y2="464.5157">
				<stop offset="0" style="stop-color:#868686" />
				<stop offset="8.703244e-02" style="stop-color:#939393" />
				<stop offset="0.2471" style="stop-color:#B4B4B4" />
				<stop offset="0.4564" style="stop-color:#E9E9E9" />
				<stop offset="0.5071" style="stop-color:#DDDDDD" />
				<stop offset="0.5986" style="stop-color:#BEBEBE" />
				<stop offset="0.7195" style="stop-color:#8B8B8B" />
				<stop offset="0.7305" style="stop-color:#868686" />
				<stop offset="0.8005" style="stop-color:#8C8C8C" />
				<stop offset="0.8939" style="stop-color:#9D9D9C" />
				<stop offset="0.9847" style="stop-color:#B4B4B2" />
			</linearGradient>
			<path class="st0" d="M332.3,460.6c0,0-23-13.2-30-17.5c-7.1-4.3-8.5-18.1-8.5-18.1v-22.8H256h-37.7V425c0,0-1.5,13.9-8.5,18.1
			c-7.1,4.3-30,17.5-30,17.5s-2.1,0.7-2.1,3.6H256h78.3C334.3,461.3,332.3,460.6,332.3,460.6z" />
			<linearGradient id="SVGID_2_" gradientUnits="userSpaceOnUse" x1="177.6756" y1="466.2283" x2="334.3245" y2="466.2283">
				<stop offset="0" style="stop-color:#868686" />
				<stop offset="8.703244e-02" style="stop-color:#939393" />
				<stop offset="0.2471" style="stop-color:#B4B4B4" />
				<stop offset="0.4564" style="stop-color:#E9E9E9" />
				<stop offset="0.5071" style="stop-color:#DDDDDD" />
				<stop offset="0.5986" style="stop-color:#BEBEBE" />
				<stop offset="0.7195" style="stop-color:#8B8B8B" />
				<stop offset="0.7305" style="stop-color:#868686" />
				<stop offset="0.8005" style="stop-color:#8C8C8C" />
				<stop offset="0.8939" style="stop-color:#9D9D9C" />
				<stop offset="0.9847" style="stop-color:#B4B4B2" />
			</linearGradient>
			<rect x="177.7" y="464.2" class="st1" width="156.6" height="4" />
		</g>
		<path class="st2" d="M489.4,80.6h-234h-1h-232H0v312.2c0,12.4,10,22.5,22.4,22.5h232h1h234c12.5,0,22.6-10.1,22.6-22.5V80.6H489.4z
		" />
		<path class="st3" d="M489.5,43.8H256.3h-0.7H22.5C10.1,43.8,0,53.9,0,66.3v305.2h22.5h233.2h0.7H512V349V66.3
		C512,53.9,501.9,43.8,489.5,43.8z" />
		<g>
			<polygon class="st4" points="259.2,67 258.4,67 20,67 20,344.5 258.4,344.5 259.2,344.5 492,344.5 492,67 		" />
			<rect x="23" y="70" class="st4" width="466" height="271.6" />
		</g>
		<path class="st5" d="M255.4,384.8c-5.1,0-9.2,4.1-9.2,9.2c0,5.1,4.1,9.2,9.2,9.2c5.1,0,9.2-4.1,9.2-9.2
		C264.7,388.9,260.5,384.8,255.4,384.8z" />
		<polygon class="st6" points="277.4,67 259.2,67 258.4,67 20,67 20,344.5 155.5,344.5 	" />
	</g>
</svg>
