<svg xmlns="http://www.w3.org/2000/svg" viewBox="0 0 512 512">
	<defs>
		<style>
			.cls-1{isolation:isolate;}.cls-2{fill:#404041;}.cls-3{fill:#4a4a49;}.cls-4{fill:#aaaaa8;}.cls-5,.cls-6{fill:#faaf40;}.cls-6{mix-blend-mode:soft-light;}
		</style>
	</defs>
	<title>
		mobil_yeni
	</title>
	<g class="cls-1">
		<g id="Capa_1" data-name="Capa 1">
			<path class="cls-2" d="M380.75,3.77H131.25A28.64,28.64,0,0,0,102.7,32.32V478.06a28.64,28.64,0,0,0,28.55,28.56h249.5a28.64,28.64,0,0,0,28.55-28.56V32.32A28.64,28.64,0,0,0,380.75,3.77Z" />
			<path class="cls-3" d="M287.56,27.87H224.44a6.63,6.63,0,1,0,0,13.26h63.12a6.63,6.63,0,1,0,0-13.26Z" />
			<path class="cls-4" d="M256.31,460.52a13.26,13.26,0,1,0,13.26,13.27A13.27,13.27,0,0,0,256.31,460.52Z" />
			<polygon class="cls-5" points="312.97 59.08 312.4 59.08 122.89 59.08 122.89 446.99 312.4 446.99 312.97 446.99 391.59 446.99 391.59 59.08 312.97 59.08" />
			<rect class="cls-5" x="125.25" y="61.72" width="263.98" height="382.63" />
			<polygon class="cls-6" points="312.97 59.08 312.4 59.08 122.89 59.08 122.89 446.99 165.47 446.99 326.12 59.08 312.97 59.08" />
		</g>
	</g>
</svg>
