<svg xmlns="http://www.w3.org/2000/svg" viewBox="0 0 512 512">
	<defs>
		<style>
			.cls-1{isolation:isolate;}.cls-2{fill:#404041;}.cls-3{fill:#aaaaa8;}.cls-4{fill:#4a4a49;}.cls-5,.cls-6{fill:#41b773;}.cls-6{mix-blend-mode:soft-light;}
		</style>
	</defs>
	<g class="cls-1">
		<g id="Capa_1" data-name="Capa 1">
			<path class="cls-2" d="M420.64,3.77H91.35A22.08,22.08,0,0,0,69.27,25.85V484.53a22.08,22.08,0,0,0,22.08,22.09H420.64a22.09,22.09,0,0,0,22.09-22.09V25.85A22.09,22.09,0,0,0,420.64,3.77Z" />
			<path class="cls-3" d="M268.11,478A12.11,12.11,0,1,1,256,465.87,12.11,12.11,0,0,1,268.11,478Z" />
			<path class="cls-4" d="M258.3,19a2.3,2.3,0,1,1-2.3-2.3A2.3,2.3,0,0,1,258.3,19Z" />
			<polygon class="cls-5" points="320.56 31 319.9 31 100.36 31 100.36 454.43 319.9 454.43 320.56 454.43 411.64 454.43 411.64 31 320.56 31" />
			<rect class="cls-5" x="103.1" y="34.06" width="305.8" height="417.31" />
			<polygon class="cls-6" points="320.56 31 319.9 31 100.36 31 100.36 454.43 149.7 454.43 335.8 31 320.56 31" />
		</g>
	</g>
</svg>
