<?xml version="1.0" encoding="utf-8"?>
<!-- Generator: Adobe Illustrator 24.3.0, SVG Export Plug-In . SVG Version: 6.00 Build 0)  -->
<svg version="1.1" id="Layer_1" xmlns="http://www.w3.org/2000/svg" xmlns:xlink="http://www.w3.org/1999/xlink" x="0px" y="0px"
	 viewBox="0 0 119.9 80" style="enable-background:new 0 0 119.9 80;" xml:space="preserve">
<style type="text/css">
	.st0{fill:url(#SVGID_1_);}
	.st1{fill:url(#SVGID_2_);}
	.st2{fill:url(#SVGID_3_);}
	.st3{fill:url(#SVGID_4_);}
	.st4{fill:url(#SVGID_5_);}
	.st5{fill:url(#SVGID_6_);}
	.st6{fill:url(#SVGID_7_);}
	.st7{fill:url(#SVGID_8_);}
	.st8{fill:url(#SVGID_9_);}
	.st9{fill:url(#SVGID_10_);}
	.st10{fill:url(#SVGID_11_);}
	.st11{fill:url(#SVGID_12_);}
	.st12{fill:url(#SVGID_13_);}
	.st13{fill:url(#SVGID_14_);}
	.st14{fill:url(#SVGID_15_);}
	.st15{fill:url(#SVGID_16_);}
	.st16{fill:url(#SVGID_17_);}
	.st17{fill:url(#SVGID_18_);}
	.st18{fill:url(#SVGID_19_);}
	.st19{fill:url(#SVGID_20_);}
	.st20{fill:url(#SVGID_21_);}
	.st21{fill:url(#SVGID_22_);}
	.st22{fill:url(#SVGID_23_);}
	.st23{fill:url(#SVGID_24_);}
	.st24{fill:url(#SVGID_25_);}
	.st25{fill:url(#SVGID_26_);}
	.st26{fill:url(#SVGID_27_);}
	.st27{fill:url(#SVGID_28_);}
	.st28{fill:url(#SVGID_29_);}
	.st29{fill:url(#SVGID_30_);}
	.st30{display:none;}
	.st31{display:inline;fill:#575756;}
	.st32{display:inline;fill:#3C3C3B;}
	.st33{fill:url(#SVGID_31_);}
	.st34{fill:url(#SVGID_32_);}
	.st35{fill:url(#SVGID_33_);}
	.st36{fill:url(#SVGID_34_);}
	.st37{fill:url(#SVGID_35_);}
	.st38{fill:url(#SVGID_36_);}
	.st39{fill:url(#SVGID_37_);}
	.st40{fill:url(#SVGID_38_);}
	.st41{fill:url(#SVGID_39_);}
	.st42{fill:url(#SVGID_40_);}
	.st43{fill:url(#SVGID_41_);}
	.st44{fill:url(#SVGID_42_);}
	.st45{fill:#FFFFFF;}
	.st46{display:inline;fill:url(#SVGID_43_);}
	.st47{display:inline;}
	.st48{fill:url(#SVGID_44_);}
	.st49{fill:url(#SVGID_45_);}
	.st50{fill:url(#SVGID_46_);}
	.st51{fill:url(#SVGID_47_);}
	.st52{fill:url(#SVGID_48_);}
	.st53{fill:url(#SVGID_49_);}
	.st54{fill:url(#SVGID_50_);}
	.st55{fill:url(#SVGID_51_);}
	.st56{fill:url(#SVGID_52_);}
	.st57{fill:#3C3C3B;}
	.st58{fill:#575756;}
	.st59{fill:url(#SVGID_53_);}
	.st60{fill:url(#SVGID_54_);}
	.st61{fill:url(#SVGID_55_);}
	.st62{fill:url(#SVGID_56_);}
	.st63{fill:url(#SVGID_57_);}
	.st64{fill:#286175;}
	.st65{fill:#363231;}
	.st66{fill:#7AAF42;}
	.st67{display:inline;fill:url(#SVGID_58_);}
	.st68{fill:url(#SVGID_59_);}
	.st69{fill:url(#SVGID_60_);}
	.st70{fill:url(#SVGID_61_);}
	.st71{fill:url(#SVGID_62_);}
	.st72{display:inline;fill:#286175;}
	.st73{fill:url(#SVGID_63_);}
	.st74{display:inline;fill:#375A64;}
	.st75{fill:#3A8CA8;}
	.st76{fill:#E1E1E1;}
	.st77{fill:#375A64;}
	.st78{display:inline;fill:#F5F5F5;}
	.st79{fill:#1A2E35;}
	.st80{display:inline;fill:#FFFFFF;stroke:#3A8CA8;stroke-miterlimit:10;}
	.st81{fill:#F5F5F5;}
	.st82{fill:#FFFFFF;stroke:#3A8CA8;stroke-miterlimit:10;}
	.st83{fill:url(#SVGID_64_);}
	.st84{fill:url(#SVGID_65_);}
	.st85{fill:url(#SVGID_66_);}
	.st86{fill:url(#SVGID_67_);}
	.st87{fill:url(#SVGID_68_);}
	.st88{fill:url(#SVGID_69_);}
	.st89{fill:url(#SVGID_70_);}
	.st90{fill:#FFFFFF;stroke:url(#SVGID_71_);stroke-miterlimit:10;}
	.st91{fill:url(#SVGID_72_);}
	.st92{fill:url(#SVGID_73_);}
	.st93{fill:#FFFFFF;stroke:url(#SVGID_74_);stroke-miterlimit:10;}
	.st94{display:inline;fill:url(#SVGID_75_);}
	.st95{display:inline;fill:url(#SVGID_76_);}
	.st96{display:inline;fill:url(#SVGID_77_);}
	.st97{display:inline;fill:url(#SVGID_78_);}
	.st98{fill:#36839E;}
	.st99{fill:#4AB4D9;}
	.st100{fill:url(#SVGID_79_);}
	.st101{fill:url(#SVGID_80_);}
	.st102{fill:url(#SVGID_81_);}
	.st103{fill:url(#SVGID_82_);}
	.st104{fill:url(#SVGID_83_);}
</style>
<g>
	<g>
		<path class="st45" d="M18,32.8H14v-9.8c0-0.5,0.1-1.2,0.2-2.2L10.8,31H8.7L5.1,20.9c0.2,0.9,0.2,1.7,0.2,2.2v9.8H1.4V13h3.9
			l4.3,11c0,0.1,0.1,0.4,0.1,0.9c0-0.2,0-0.5,0.1-0.9l4.3-11H18V32.8z"/>
		<polygon class="st45" points="34.4,32.8 23.1,32.8 23.1,13 34.3,13 34.3,15.6 27.1,15.6 27.1,21.4 33.3,21.4 33.3,24 27.1,24 
			27.1,30.2 34.4,30.2 		"/>
		<path class="st45" d="M52.7,29.1c0,1.2-0.5,2.1-1.4,2.7c-1,0.7-2.2,1-3.9,1H39V13h8.4c1.6,0,2.9,0.3,3.9,1s1.4,1.6,1.4,2.8V29.1z
			 M48.6,28.6V17.2c0-1.1-0.8-1.7-2.4-1.7h-3v14.7H46C47.7,30.3,48.6,29.7,48.6,28.6z"/>
		<path class="st45" d="M68.8,23.5c0,0.4-0.2,0.8-0.6,1s-0.9,0.4-1.5,0.4H60v7.9h-2.6v-20h9.3c0.6,0,1.1,0.1,1.5,0.4s0.6,0.6,0.6,1
			V23.5z M66.3,23.3v-8.9H60v8.9H66.3z"/>
		<path class="st45" d="M83.9,32.8h-9.2v-20h2.6v18.4h6.6V32.8z"/>
		<path class="st45" d="M100.9,32.8h-2.5l-1-4.5h-5.7l-1,4.5h-2.5v-0.1l5.1-20h2.5L100.9,32.8z M97,26.8L94.5,16L92,26.8H97z"/>
		<path class="st45" d="M118.1,32.8h-1.8l-7.7-14.7v14.7h-2.4v-20h1.9l7.5,14.5V12.8h2.4V32.8z"/>
	</g>
	<g>
		<g>
			<path class="st45" d="M18.7,50.2c0,2.7-0.8,4.7-2.3,6.2c-1.6,1.5-3.7,2.2-6.6,2.2H6.4v-4.3h3.1c1.4,0,2.5-0.4,3.3-1
				c0.7-0.7,1.1-1.7,1.1-2.9c0-1.3-0.4-2.2-1.1-2.9c-0.8-0.7-1.8-1-3.3-1H5.4v0.4h0v18.2h-5V42.2h9.4c2.8,0,5,0.7,6.6,2.1
				C17.9,45.7,18.7,47.6,18.7,50.2z"/>
			<path class="st45" d="M37.3,57.6v6.3c-1.7,0.9-3.5,1.3-5.6,1.3c-2.2,0-4.1-0.5-5.9-1.5c-1.8-1-3.2-2.4-4.2-4.1
				c-1-1.8-1.5-3.7-1.5-5.9c0-2.1,0.5-4.1,1.5-5.8c0.9-1.5,2-2.7,3.5-3.7v10.4h0c0.1,1,0.4,2,0.9,2.8c0.6,1.1,1.4,2,2.4,2.6
				c1,0.6,2.1,0.9,3.3,0.9c1.2,0,2.3-0.3,3.3-0.9C36,59.3,36.7,58.6,37.3,57.6z"/>
			<path class="st45" d="M43.3,53.7c0,2.2-0.5,4.1-1.5,5.9c-0.9,1.5-2.1,2.8-3.5,3.8v-8.8c0-0.3,0-0.6,0-0.9c0-1.3-0.3-2.5-0.9-3.6
				C36.8,49,36,48.2,35,47.5c-1-0.6-2.1-0.9-3.3-0.9c-1.2,0-2.3,0.3-3.3,0.9c-1,0.6-1.8,1.4-2.4,2.4v-6.4c1.7-0.9,3.6-1.4,5.6-1.4
				c2.2,0,4.1,0.5,5.9,1.5c1.8,1,3.2,2.4,4.2,4.1C42.8,49.6,43.3,51.5,43.3,53.7z"/>
			<path class="st45" d="M59.2,57.6c-1.4,0.9-4.5,1-4.5,1h-4.2v-4.3h3.7c1.4,0,2.5-0.4,3.2-1c0.8-0.7,1.1-1.7,1.1-2.9
				c0-1.3-0.4-2.2-1.1-2.9c-0.8-0.7-1.8-1-3.2-1h-4.7v18.6h-4.9V42.2h9.6c2.9,0,5.1,0.7,6.7,2.1c1.6,1.4,2.4,3.3,2.4,5.9
				c0,1.8-0.4,3.3-1.1,4.5C61.6,55.9,60.6,56.9,59.2,57.6z"/>
			<path class="st45" d="M63.9,65.1h-5.7l-3-5.6c2.5,0,4.6-0.8,4.7-0.8L63.9,65.1z"/>
			<rect x="64.2" y="42.2" class="st45" width="18.5" height="4.4"/>
			<rect x="71" y="47.6" class="st45" width="5" height="17.5"/>
			<polygon class="st45" points="88.4,42.6 90.6,48.6 87.5,56.5 93.5,56.5 95.1,60.7 85.8,60.7 84.1,65.1 78.9,65.1 			"/>
			<polygon class="st45" points="89.3,42.2 93.7,42.2 103.2,65.1 97.9,65.1 			"/>
			<rect x="104.9" y="42.2" class="st45" width="5" height="17.5"/>
		</g>
		<rect x="104.9" y="60.8" class="st45" width="14.5" height="4.3"/>
	</g>
</g>
</svg>
