<?xml version="1.0" encoding="utf-8"?>
<!-- Generator: Adobe Illustrator 24.3.0, SVG Export Plug-In . SVG Version: 6.00 Build 0)  -->
<svg version="1.1" id="Layer_1" xmlns="http://www.w3.org/2000/svg" xmlns:xlink="http://www.w3.org/1999/xlink" x="0px" y="0px"
	 viewBox="0 0 70.1 80" style="enable-background:new 0 0 70.1 80;" xml:space="preserve">
<style type="text/css">
	.st0{fill:url(#SVGID_1_);}
	.st1{fill:url(#SVGID_2_);}
	.st2{fill:url(#SVGID_3_);}
	.st3{fill:url(#SVGID_4_);}
	.st4{fill:url(#SVGID_5_);}
	.st5{fill:url(#SVGID_6_);}
	.st6{fill:url(#SVGID_7_);}
	.st7{fill:url(#SVGID_8_);}
	.st8{fill:url(#SVGID_9_);}
	.st9{fill:url(#SVGID_10_);}
	.st10{fill:url(#SVGID_11_);}
	.st11{fill:url(#SVGID_12_);}
	.st12{fill:url(#SVGID_13_);}
	.st13{fill:url(#SVGID_14_);}
	.st14{fill:url(#SVGID_15_);}
	.st15{fill:url(#SVGID_16_);}
	.st16{fill:url(#SVGID_17_);}
	.st17{fill:url(#SVGID_18_);}
	.st18{fill:url(#SVGID_19_);}
	.st19{fill:url(#SVGID_20_);}
	.st20{fill:url(#SVGID_21_);}
	.st21{fill:url(#SVGID_22_);}
	.st22{fill:url(#SVGID_23_);}
	.st23{fill:url(#SVGID_24_);}
	.st24{fill:url(#SVGID_25_);}
	.st25{fill:url(#SVGID_26_);}
	.st26{fill:url(#SVGID_27_);}
	.st27{fill:url(#SVGID_28_);}
	.st28{fill:url(#SVGID_29_);}
	.st29{fill:url(#SVGID_30_);}
	.st30{display:none;}
	.st31{display:inline;fill:#575756;}
	.st32{display:inline;fill:#3C3C3B;}
	.st33{fill:url(#SVGID_31_);}
	.st34{fill:url(#SVGID_32_);}
	.st35{fill:url(#SVGID_33_);}
	.st36{fill:url(#SVGID_34_);}
	.st37{fill:url(#SVGID_35_);}
	.st38{fill:url(#SVGID_36_);}
	.st39{fill:url(#SVGID_37_);}
	.st40{fill:url(#SVGID_38_);}
	.st41{fill:url(#SVGID_39_);}
	.st42{fill:url(#SVGID_40_);}
	.st43{fill:url(#SVGID_41_);}
	.st44{fill:url(#SVGID_42_);}
	.st45{fill:#FFFFFF;}
	.st46{display:inline;fill:url(#SVGID_43_);}
	.st47{display:inline;}
	.st48{fill:url(#SVGID_44_);}
	.st49{fill:url(#SVGID_45_);}
	.st50{fill:url(#SVGID_46_);}
	.st51{fill:url(#SVGID_47_);}
	.st52{fill:#388FA1;}
	.st53{fill:#3C3C3B;}
	.st54{fill:#575756;}
	.st55{fill:url(#SVGID_48_);}
	.st56{fill:url(#SVGID_49_);}
	.st57{fill:url(#SVGID_50_);}
	.st58{fill:url(#SVGID_51_);}
	.st59{fill:url(#SVGID_52_);}
	.st60{fill:#286175;}
	.st61{fill:#363231;}
	.st62{fill:#7AAF42;}
	.st63{display:inline;fill:url(#SVGID_53_);}
	.st64{fill:url(#SVGID_54_);}
	.st65{fill:url(#SVGID_55_);}
	.st66{fill:url(#SVGID_56_);}
	.st67{fill:url(#SVGID_57_);}
	.st68{display:inline;fill:#286175;}
	.st69{fill:url(#SVGID_58_);}
	.st70{display:inline;fill:#375A64;}
	.st71{fill:#3A8CA8;}
	.st72{fill:#E1E1E1;}
	.st73{fill:#375A64;}
	.st74{display:inline;fill:#F5F5F5;}
	.st75{fill:#1A2E35;}
	.st76{display:inline;fill:#FFFFFF;stroke:#3A8CA8;stroke-miterlimit:10;}
	.st77{fill:#F5F5F5;}
	.st78{fill:#FFFFFF;stroke:#3A8CA8;stroke-miterlimit:10;}
	.st79{fill:url(#SVGID_59_);}
	.st80{fill:url(#SVGID_60_);}
	.st81{fill:url(#SVGID_61_);}
	.st82{fill:url(#SVGID_62_);}
	.st83{fill:url(#SVGID_63_);}
	.st84{fill:url(#SVGID_64_);}
	.st85{fill:url(#SVGID_65_);}
	.st86{display:inline;fill:#FFFFFF;stroke:url(#SVGID_66_);stroke-miterlimit:10;}
	.st87{fill:url(#SVGID_67_);}
	.st88{fill:url(#SVGID_68_);}
	.st89{fill:#FFFFFF;stroke:url(#SVGID_69_);stroke-miterlimit:10;}
	.st90{fill:url(#SVGID_70_);}
	.st91{fill:url(#SVGID_71_);}
	.st92{fill:#FFFFFF;stroke:url(#SVGID_72_);stroke-miterlimit:10;}
	.st93{display:inline;fill:url(#SVGID_73_);}
	.st94{display:inline;fill:url(#SVGID_74_);}
	.st95{display:inline;fill:url(#SVGID_75_);}
	.st96{display:inline;fill:url(#SVGID_76_);}
	.st97{fill:#36839E;}
	.st98{fill:#4AB4D9;}
	.st99{fill:url(#SVGID_77_);}
	.st100{fill:url(#SVGID_78_);}
	.st101{fill:url(#SVGID_79_);}
	.st102{fill:url(#SVGID_80_);}
	.st103{fill:url(#SVGID_81_);}
	.st104{fill:#337C8B;}
</style>
<g>
	<polygon class="st52" points="31.2,34.5 40.9,71.6 49.5,64 61.6,77.2 69.9,69.3 58.1,56.5 66.7,48.9 	"/>
	<g>
		<path class="st52" d="M66.6,53l-5.4,4.8l1.5,1.6C64.2,57.4,65.5,55.3,66.6,53z"/>
		<path class="st52" d="M36.7,66.2c-0.6,0-1.1,0.1-1.7,0.1c-2,0-4-0.2-6-0.6c-1.2-3.5-2.9-9.2-4-16.2c2.6,0.3,5.1,0.5,7.6,0.6
			l-0.8-3c-2.3-0.1-4.8-0.3-7.2-0.6c0-0.1,0-0.1,0-0.2c-0.6-5.2-0.9-10.9-0.4-16.8c6.2-0.7,13.6-1,21.4-0.2c0.2,2.9,0.3,5.8,0.2,8.6
			l2.4,0.9c0.1-3,0.1-6.1-0.2-9.3c4.8,0.6,9.8,1.6,14.8,3.2c0.1,0.6,0.2,1.3,0.3,2c0.1,1,0.1,1.9,0.1,2.9c0,2.1-0.2,4.1-0.6,6
			c-0.4,0.1-0.9,0.2-1.4,0.4l7.6,3c0.7-2.8,1.1-5.7,1.1-8.8c0-1.4-0.1-2.8-0.3-4.2C67.8,16.5,53,2.8,35,2.8
			C15.8,2.8,0.3,18.4,0.3,37.6c0,1.4,0.1,2.8,0.3,4.2C2.3,59.3,17.1,73,35.1,73c1.1,0,2.2-0.1,3.3-0.2L36.7,66.2z M61.9,29.3
			c-4.8-1.4-9.6-2.3-14.2-2.9c0-0.4-0.1-0.8-0.1-1.2c-0.6-4.7-1.7-9.5-3.5-14.2C52.5,13.9,59.1,20.7,61.9,29.3z M35.1,9.6
			c2,0,4,0.2,5.9,0.6c2.2,5.1,3.5,10.3,4.3,15.5c0,0.2,0,0.3,0.1,0.5c-7.6-0.7-14.7-0.5-20.8,0.2c0.7-5.4,2-10.8,4.3-16.1
			C30.8,9.8,32.9,9.6,35.1,9.6z M25.6,11.2c-1.9,5.1-3,10.3-3.6,15.4c-6,0.8-10.8,1.9-13.7,2.7C11,20.9,17.4,14.2,25.6,11.2z
			 M7.1,41.2c-0.1-1-0.1-1.9-0.1-2.9c0-1.9,0.2-3.8,0.5-5.6c2.4-0.7,7.5-2,14.3-3c-0.4,5.7-0.1,11.3,0.5,16.4
			c-4.9-0.7-9.9-1.9-15-3.7C7.2,42,7.1,41.6,7.1,41.2z M8,45.7c5,1.6,9.9,2.7,14.7,3.4c1,6.4,2.4,11.8,3.6,15.7
			C17.5,61.9,10.6,54.7,8,45.7z"/>
		<path class="st52" d="M40,65.8l1.3,4.8l8.3-7.3l4.1,4.4c2.9-1.8,5.6-4.1,7.8-6.7l-4.1-4.5l8.3-7.3l-4.2-1.7
			c-3,8.2-9.5,14.7-17.8,17.4c1.2-3.8,2.6-9.2,3.5-15.4c5.7-0.6,10.4-1.6,13.6-2.3l-4.9-2c-2.4,0.5-5.2,0.9-8.3,1.3
			c0.2-1.5,0.3-3,0.4-4.5l-2.4-1c-0.1,2-0.3,3.9-0.6,5.7c-3.1,0.3-6.5,0.4-10,0.4l0.8,3c0.1,0,0.3,0,0.4,0c3,0,5.8-0.1,8.4-0.3
			c-1.1,6.8-2.8,12.4-3.9,15.9C40.5,65.7,40.2,65.7,40,65.8z"/>
		<path class="st52" d="M50.5,67.2l-4.7,4.1c2.1-0.7,4.2-1.6,6.1-2.6L50.5,67.2z"/>
	</g>
</g>
<g class="st30">
	<path class="st70" d="M-175.8-11c-26.5,14.1-46,37.7-54.8,66.4c-18.1,59.3,15.3,122.3,74.6,140.4l0,0
		c36.4,11.1,74.1,2.8,102.1-18.9l94.7,118.5l14.5-11.6l-95.5-119.5c11-12,19.6-26.5,24.6-43c1.2-3.9,2.2-7.9,2.9-11.8
		c4.8-25.1,1-50.9-11.2-73.8C-37.8,9-61.4-10.4-90.1-19.2C-118.8-28-149.3-25.1-175.8-11z M-95.6-1.5c24,7.3,43.7,23.6,55.4,45.7
		c11.8,22.1,14.2,47.5,6.9,71.5c-15.2,49.5-67.7,77.4-117.2,62.3c-49.5-15.2-77.4-67.7-62.3-117.2c7.3-24,23.6-43.7,45.7-55.4
		C-144.9-6.4-119.5-8.8-95.6-1.5z"/>
</g>
</svg>
