<svg height="1300" viewBox="0 0 653.52082 343.95834" width="2470" xmlns="http://www.w3.org/2000/svg"><g transform="translate(0 46.95835)"><path d="m0-46.958347h653.52083v343.958327h-653.52083z" fill="#bf0a30" stroke-width=".264583"/><g fill="#fff" transform="matrix(.26458333 0 0 .26458333 0 -46.958347)"><path d="m0 100h2470v100h-2470z"/><path d="m0 300h2470v100h-2470z"/><path d="m0 500h2470v100h-2470z"/></g><g fill="#fff" transform="matrix(.26458333 0 0 .26458333 0 111.79165)"><path d="m0 100h2470v100h-2470z"/><path d="m0 300h2470v100h-2470z"/><path d="m0 500h2470v100h-2470z"/></g><path d="m0-46.958347h261.40833v185.208327h-261.40833z" fill="#002868" stroke-width=".264583"/><g fill="#fff" stroke-width=".077529"><path d="m37.67141 90.53374 4.55114 14.11465 14.830223-.0315-12.017423 8.69007 4.61277 14.09465-11.97834-8.74387-11.97936 8.74248 4.61442-14.09411-12.01642-8.69147 14.83021.0333z"/><path d="m84.188813 90.53374 4.55114 14.11465 14.830217-.0315-12.017417 8.69007 4.61277 14.09465-11.97834-8.74387-11.97936 8.74248 4.61442-14.09411-12.01642-8.69147 14.83021.0333z"/><path d="m130.70423 90.53374 4.55114 14.11465 14.83021-.0315-12.01742 8.69007 4.61278 14.09465-11.97834-8.74387-11.97936 8.74248 4.61441-14.09411-12.01641-8.69147 14.83021.0333z"/><path d="m177.22163 90.53374 4.55114 14.11465 14.83021-.0315-12.01742 8.69007 4.61278 14.09465-11.97834-8.74387-11.97936 8.74248 4.61441-14.09411-12.01641-8.69147 14.83021.0333z"/><path d="m223.74102 90.53374 4.55114 14.11465 14.83021-.0315-12.01742 8.69007 4.61278 14.09465-11.97835-8.74387-11.97935 8.74248 4.61441-14.09411-12.01641-8.69147 14.83021.0333z"/><path d="m37.66942 45.99766 4.55115 14.11465 14.830213-.0316-12.017423 8.69007 4.61278 14.09466-11.97835-8.74388-11.97936 8.74249 4.61442-14.09412-12.01642-8.69146 14.83021.0333z"/><path d="m37.67141 3.3567232 4.55114 14.1146468 14.830223-.0316-12.017423 8.69007 4.61277 14.09466-11.97834-8.74388-11.97936 8.74249 4.61442-14.09412-12.01642-8.69147 14.83021.0333z"/><path d="m84.186833 3.3567132 4.55114 14.1146468 14.830207-.0315-12.017417 8.69007 4.61278 14.09465-11.97835-8.74387-11.97935 8.74248 4.61441-14.09411-12.01641-8.69147 14.83021.0333z"/><path d="m130.70621 3.3567232 4.55114 14.1146468 14.83022-.0316-12.01742 8.69007 4.61278 14.09466-11.97835-8.74388-11.97935 8.74249 4.61441-14.09412-12.01642-8.69147 14.83021.0333z"/><path d="m177.22163 3.3567232 4.55114 14.1146468 14.83021-.0316-12.01742 8.69007 4.61278 14.09466-11.97834-8.74388-11.97936 8.74249 4.61441-14.09412-12.01641-8.69147 14.83021.0333z"/><path d="m223.74102 3.3567132 4.55114 14.1146468 14.83021-.0315-12.01742 8.69007 4.61278 14.09466-11.97835-8.74388-11.97935 8.74249 4.61441-14.09412-12.01641-8.69146 14.83021.0333z"/><path d="m37.67141-39.284237 4.55114 14.11465 14.830223-.0315-12.017423 8.69007 4.61277 14.0946502-11.97834-8.7438702-11.97936 8.7424802 4.61442-14.0941102-12.01642-8.69147 14.83021.0333z"/><path d="m84.188813-39.284217 4.55114 14.11465 14.830217-.0315-12.017417 8.69007 4.61277 14.0946502-11.97834-8.7438702-11.97936 8.7424802 4.61442-14.0941202-12.01642-8.69146 14.83021.0333z"/><path d="m130.70621-39.284237 4.55114 14.11465 14.83022-.0315-12.01742 8.69007 4.61278 14.0946502-11.97835-8.7438702-11.97935 8.7424802 4.61441-14.0941102-12.01642-8.69147 14.83021.0333z"/><path d="m177.22362-39.284237 4.55114 14.11465 14.83021-.0315-12.01742 8.69007 4.61278 14.0946502-11.97835-8.7438702-11.97935 8.7424802 4.61441-14.0941102-12.01642-8.69147 14.83022.0333z"/><path d="m223.73901-39.284217 4.55114 14.11465 14.83022-.0315-12.01743 8.69007 4.61278 14.0946502-11.97834-8.7438702-11.97936 8.7424802 4.61441-14.0941202-12.01641-8.69146 14.83021.0333z"/><path d="m84.184863 45.99766 4.55114 14.11465 14.830207-.0316-12.017417 8.69007 4.61278 14.09466-11.97834-8.74388-11.97936 8.74249 4.61441-14.09412-12.01641-8.69146 14.83021.0333z"/><path d="m130.70423 45.99767 4.55114 14.11465 14.83021-.0315-12.01742 8.69007 4.61278 14.09466-11.97834-8.74388-11.97936 8.74249 4.61441-14.09412-12.01641-8.69146 14.83021.0333z"/><path d="m177.22362 45.99767 4.55114 14.11465 14.83021-.0315-12.01742 8.69007 4.61278 14.09466-11.97835-8.74388-11.97935 8.74249 4.61441-14.09412-12.01642-8.69146 14.83022.0333z"/><path d="m223.74102 45.99767 4.55114 14.11465 14.83021-.0315-12.01742 8.69007 4.61278 14.09466-11.97835-8.74388-11.97935 8.74249 4.61441-14.09412-12.01641-8.69146 14.83021.0333z"/></g></g></svg>